<?xml version="1.0" encoding="UTF-8"?>
<!DOCTYPE svg PUBLIC "-//W3C//DTD SVG 1.1//EN" "http://www.w3.org/Graphics/SVG/1.1/DTD/svg11.dtd">
<svg xmlns="http://www.w3.org/2000/svg" version="1.1" width="281px" height="319px" style="shape-rendering:geometricPrecision; text-rendering:geometricPrecision; image-rendering:optimizeQuality; fill-rule:evenodd; clip-rule:evenodd" xmlns:xlink="http://www.w3.org/1999/xlink">
<g><path style="opacity:0.988" fill="#fefefe" d="M 170.5,15.5 C 126.832,15.3333 83.1654,15.5 39.5,16C 41.0806,16.7065 42.5806,17.5399 44,18.5C 87.1268,17.5171 130.627,17.3504 174.5,18C 179.425,20.5225 184.425,21.6891 189.5,21.5C 194.583,22.8947 199.583,24.728 204.5,27C 209.15,30.9924 214.15,34.4924 219.5,37.5C 227.13,45.4202 234.296,53.7535 241,62.5C 244.299,70.3396 247.299,78.3396 250,86.5C 251.324,96.116 251.824,105.783 251.5,115.5C 251.5,118.167 251.5,120.833 251.5,123.5C 250.883,123.611 250.383,123.944 250,124.5C 249.608,130.03 247.942,135.03 245,139.5C 242.949,145.145 240.782,150.812 238.5,156.5C 238.624,157.107 238.957,157.44 239.5,157.5C 236.93,162.738 233.264,167.072 228.5,170.5C 228.631,169.761 228.464,169.094 228,168.5C 223.308,172.529 218.642,176.529 214,180.5C 213.667,180.167 213.333,179.833 213,179.5C 211.595,181.651 209.761,183.318 207.5,184.5C 206.914,184.291 206.414,183.957 206,183.5C 204.829,184.893 203.329,185.727 201.5,186C 200.167,186.667 200.167,187.333 201.5,188C 196.73,189.201 192.063,190.701 187.5,192.5C 177.697,183.7 169.364,173.7 162.5,162.5C 160.61,162.703 159.11,162.037 158,160.5C 152.827,154.333 154.16,152.333 162,154.5C 166.189,154.187 170.356,153.687 174.5,153C 178.726,150.469 183.226,148.636 188,147.5C 191.788,143.707 195.621,140.041 199.5,136.5C 200.559,134.466 201.559,132.466 202.5,130.5C 204.186,126.467 205.853,122.467 207.5,118.5C 211.676,91.4792 202.009,72.8125 178.5,62.5C 174.908,62.2857 171.408,61.6191 168,60.5C 138.776,60.5192 109.609,60.5192 80.5,60.5C 78.6887,60.208 76.6887,60.208 74.5,60.5C 71.3242,56.4935 67.9908,52.6602 64.5,49C 63.552,48.5172 62.552,48.3505 61.5,48.5C 51.5536,38.3929 42.5536,27.5596 34.5,16C 35.1667,15.3333 35.8333,14.6667 36.5,14C 81.3148,14.125 125.981,14.625 170.5,15.5 Z"/></g>
<g><path style="opacity:0.89" fill="#efeced" d="M 170.5,15.5 C 177.334,15.5373 184,16.8706 190.5,19.5C 189.662,19.8417 189.328,20.5084 189.5,21.5C 184.425,21.6891 179.425,20.5225 174.5,18C 130.627,17.3504 87.1268,17.5171 44,18.5C 42.5806,17.5399 41.0806,16.7065 39.5,16C 83.1654,15.5 126.832,15.3333 170.5,15.5 Z"/></g>
<g><path style="opacity:1" fill="#fefefe" d="M 28.5,25.5 C 27.7109,25.7828 27.0442,26.2828 26.5,27C 28.6278,28.6669 29.9611,30.8336 30.5,33.5C 35.0514,35.9141 38.2181,39.5808 40,44.5C 46.3477,51.07 52.5143,57.7367 58.5,64.5C 87.1977,99.789 117.031,135.122 148,170.5C 161.62,187.339 175.454,203.839 189.5,220C 189.167,220.333 188.833,220.667 188.5,221C 192.228,224.728 196.394,228.894 201,233.5C 202.766,235.596 204.099,237.929 205,240.5C 207.333,242.5 209.667,244.5 212,246.5C 217.826,253.49 223.16,260.824 228,268.5C 228.333,268.167 228.667,267.833 229,267.5C 231.696,270.895 234.029,274.562 236,278.5C 237.147,277.542 238.147,277.875 239,279.5C 244.163,286.155 249.663,292.489 255.5,298.5C 255.953,299.458 256.619,300.292 257.5,301C 241.156,301.833 224.823,301.666 208.5,300.5C 205.267,295.369 201.1,290.369 196,285.5C 195.667,284.5 195.333,283.5 195,282.5C 194.667,282.833 194.333,283.167 194,283.5C 193.226,281.061 191.726,279.227 189.5,278C 189.833,277.667 190.167,277.333 190.5,277C 186.484,274.421 183.651,270.921 182,266.5C 181.667,266.833 181.333,267.167 181,267.5C 179.637,265.316 178.137,263.316 176.5,261.5C 169.53,254.69 163.03,247.357 157,239.5C 152.464,233.229 147.131,226.895 141,220.5C 130.752,206.961 119.419,193.627 107,180.5C 105.333,177.833 103.667,175.167 102,172.5C 96.3284,167.161 90.9951,161.495 86,155.5C 83.3739,151.044 80.2072,147.044 76.5,143.5C 76.7093,142.914 77.0426,142.414 77.5,142C 71.0271,136.86 65.1938,131.027 60,124.5C 50.0793,111.192 39.0793,98.1916 27,85.5C 25.9701,85.8361 25.4701,86.5028 25.5,87.5C 24.4415,86.3998 23.6082,85.0664 23,83.5C 22.1768,74.9896 22.3434,66.6563 23.5,58.5C 23.036,66.3401 23.536,74.0068 25,81.5C 25.6667,64.1667 25.6667,46.8333 25,29.5C 24.6667,28.8333 24.3333,28.1667 24,27.5C 23.5005,33.4908 23.3338,39.4908 23.5,45.5C 22.3448,38.3451 22.1782,31.0118 23,23.5C 25.301,21.4755 27.1343,22.1421 28.5,25.5 Z"/></g>
<g><path style="opacity:0.149" fill="#ededed" d="M 61.5,48.5 C 62.552,48.3505 63.552,48.5172 64.5,49C 67.9908,52.6602 71.3242,56.4935 74.5,60.5C 76.6887,60.208 78.6887,60.208 80.5,60.5C 80.1667,61.1667 79.8333,61.8333 79.5,62.5C 77.1432,62.6633 74.8098,62.4966 72.5,62C 68.6207,57.626 64.9541,53.126 61.5,48.5 Z"/></g>
<g><path style="opacity:0.741" fill="#e9e7e8" d="M 23.5,58.5 C 23.5,54.1667 23.5,49.8333 23.5,45.5C 23.3338,39.4908 23.5005,33.4908 24,27.5C 24.3333,28.1667 24.6667,28.8333 25,29.5C 25.6667,46.8333 25.6667,64.1667 25,81.5C 23.536,74.0068 23.036,66.3401 23.5,58.5 Z"/></g>
<g><path style="opacity:0.578" fill="#ddddda" d="M 80.5,60.5 C 109.609,60.5192 138.776,60.5192 168,60.5C 171.408,61.6191 174.908,62.2857 178.5,62.5C 178.5,63.8333 177.833,64.5 176.5,64.5C 172.837,64.0482 169.17,63.5482 165.5,63C 136.835,62.5 108.169,62.3334 79.5,62.5C 79.8333,61.8333 80.1667,61.1667 80.5,60.5 Z"/></g>
<g><path style="opacity:0.124" fill="#e0e0e0" d="M 190.5,19.5 C 227.042,32.3869 248.375,58.0536 254.5,96.5C 252.851,102.601 251.851,108.935 251.5,115.5C 251.824,105.783 251.324,96.116 250,86.5C 247.299,78.3396 244.299,70.3396 241,62.5C 234.296,53.7535 227.13,45.4202 219.5,37.5C 214.15,34.4924 209.15,30.9924 204.5,27C 199.583,24.728 194.583,22.8947 189.5,21.5C 189.328,20.5084 189.662,19.8417 190.5,19.5 Z"/></g>
<g><path style="opacity:0.328" fill="#ebebeb" d="M 178.5,62.5 C 202.009,72.8125 211.676,91.4792 207.5,118.5C 207.795,116.265 207.461,114.265 206.5,112.5C 207.119,89.7171 197.119,73.7171 176.5,64.5C 177.833,64.5 178.5,63.8333 178.5,62.5 Z"/></g>
<g><path style="opacity:0.981" fill="#fefefe" d="M 27.5,109.5 C 40.2901,124.794 53.2901,139.961 66.5,155C 66.1667,156 65.8333,157 65.5,158C 66.3104,163.751 66.8104,169.584 67,175.5C 67.2321,176.737 67.7321,177.737 68.5,178.5C 68.1756,194.078 68.509,209.578 69.5,225C 89.6709,225.168 109.671,225.668 129.5,226.5C 110.164,226.333 90.8305,226.5 71.5,227C 90.4841,228.073 109.484,228.739 128.5,229C 136.119,240.06 144.786,250.56 154.5,260.5C 126.22,260.823 98.2204,261.823 70.5,263.5C 68.8254,276.37 67.8254,289.536 67.5,303C 54.5043,303.5 41.5043,303.667 28.5,303.5C 29.6602,301.797 28.9935,301.131 26.5,301.5C 26.5329,298.435 26.1995,295.268 25.5,292C 26.1573,231.109 26.824,170.276 27.5,109.5 Z"/></g>
<g><path style="opacity:0.467" fill="#d0ccce" d="M 254.5,96.5 C 254.666,104.174 254.5,111.841 254,119.5C 253.809,121.708 253.309,123.708 252.5,125.5C 251.662,125.158 251.328,124.492 251.5,123.5C 251.5,120.833 251.5,118.167 251.5,115.5C 251.851,108.935 252.851,102.601 254.5,96.5 Z"/></g>
<g><path style="opacity:0.444" fill="#cfcece" d="M 206.5,112.5 C 207.461,114.265 207.795,116.265 207.5,118.5C 205.853,122.467 204.186,126.467 202.5,130.5C 201.508,130.672 200.842,130.338 200.5,129.5C 202.896,123.978 204.896,118.312 206.5,112.5 Z"/></g>
<g><path style="opacity:0.357" fill="#e8e8e8" d="M 251.5,123.5 C 251.328,124.492 251.662,125.158 252.5,125.5C 250.119,136.981 245.785,147.647 239.5,157.5C 238.957,157.44 238.624,157.107 238.5,156.5C 240.782,150.812 242.949,145.145 245,139.5C 247.942,135.03 249.608,130.03 250,124.5C 250.383,123.944 250.883,123.611 251.5,123.5 Z"/></g>
<g><path style="opacity:0.494" fill="#eae9e9" d="M 68.5,178.5 C 67.7321,177.737 67.2321,176.737 67,175.5C 66.8104,169.584 66.3104,163.751 65.5,158C 65.8333,157 66.1667,156 66.5,155C 53.2901,139.961 40.2901,124.794 27.5,109.5C 27.2172,108.711 26.7172,108.044 26,107.5C 26.1637,166.842 25.3304,225.842 23.5,284.5C 23.716,224.107 23.3827,163.774 22.5,103.5C 25.7845,103.269 28.2845,104.603 30,107.5C 42.6965,122.858 55.3632,138.191 68,153.5C 68.4997,161.827 68.6664,170.16 68.5,178.5 Z"/></g>
<g><path style="opacity:0.532" fill="#eeeded" d="M 200.5,129.5 C 200.842,130.338 201.508,130.672 202.5,130.5C 201.559,132.466 200.559,134.466 199.5,136.5C 195.621,140.041 191.788,143.707 188,147.5C 183.226,148.636 178.726,150.469 174.5,153C 170.356,153.687 166.189,154.187 162,154.5C 154.16,152.333 152.827,154.333 158,160.5C 159.11,162.037 160.61,162.703 162.5,162.5C 169.364,173.7 177.697,183.7 187.5,192.5C 192.063,190.701 196.73,189.201 201.5,188C 200.167,187.333 200.167,186.667 201.5,186C 203.329,185.727 204.829,184.893 206,183.5C 206.414,183.957 206.914,184.291 207.5,184.5C 209.761,183.318 211.595,181.651 213,179.5C 213.333,179.833 213.667,180.167 214,180.5C 218.642,176.529 223.308,172.529 228,168.5C 228.464,169.094 228.631,169.761 228.5,170.5C 216.778,184.077 202.111,192.244 184.5,195C 173,181.5 161.5,168 150,154.5C 149.383,153.551 149.549,152.718 150.5,152C 153.382,150.295 156.382,150.129 159.5,151.5C 176.561,151.636 190.227,144.302 200.5,129.5 Z"/></g>
<g><path style="opacity:0.484" fill="#ededed" d="M 176.5,261.5 C 176.737,262.791 176.404,263.791 175.5,264.5C 125.5,205.5 75.5,146.5 25.5,87.5C 25.4701,86.5028 25.9701,85.8361 27,85.5C 39.0793,98.1916 50.0793,111.192 60,124.5C 65.1938,131.027 71.0271,136.86 77.5,142C 77.0426,142.414 76.7093,142.914 76.5,143.5C 80.2072,147.044 83.3739,151.044 86,155.5C 90.9951,161.495 96.3284,167.161 102,172.5C 103.667,175.167 105.333,177.833 107,180.5C 119.419,193.627 130.752,206.961 141,220.5C 147.131,226.895 152.464,233.229 157,239.5C 163.03,247.357 169.53,254.69 176.5,261.5 Z"/></g>
<g><path style="opacity:0.344" fill="#eeedee" d="M 28.5,25.5 C 105.576,115.573 181.91,206.24 257.5,297.5C 257.158,298.338 256.492,298.672 255.5,298.5C 249.663,292.489 244.163,286.155 239,279.5C 238.147,277.875 237.147,277.542 236,278.5C 234.029,274.562 231.696,270.895 229,267.5C 228.667,267.833 228.333,268.167 228,268.5C 223.16,260.824 217.826,253.49 212,246.5C 209.667,244.5 207.333,242.5 205,240.5C 204.099,237.929 202.766,235.596 201,233.5C 196.394,228.894 192.228,224.728 188.5,221C 188.833,220.667 189.167,220.333 189.5,220C 175.454,203.839 161.62,187.339 148,170.5C 117.031,135.122 87.1977,99.789 58.5,64.5C 52.5143,57.7367 46.3477,51.07 40,44.5C 38.2181,39.5808 35.0514,35.9141 30.5,33.5C 29.9611,30.8336 28.6278,28.6669 26.5,27C 27.0442,26.2828 27.7109,25.7828 28.5,25.5 Z"/></g>
<g><path style="opacity:0.361" fill="#eeeeee" d="M 129.5,226.5 C 138.982,237.428 148.482,248.428 158,259.5C 158.844,261.463 158.344,262.796 156.5,263.5C 155.402,262.603 155.402,261.77 156.5,261C 155.906,260.536 155.239,260.369 154.5,260.5C 144.786,250.56 136.119,240.06 128.5,229C 109.484,228.739 90.4841,228.073 71.5,227C 90.8305,226.5 110.164,226.333 129.5,226.5 Z"/></g>
<g><path style="opacity:0.983" fill="#f7f4f5" d="M 27.5,109.5 C 26.824,170.276 26.1573,231.109 25.5,292C 26.1995,295.268 26.5329,298.435 26.5,301.5C 28.9935,301.131 29.6602,301.797 28.5,303.5C 26.5328,303.739 24.6995,303.406 23,302.5C 23.3045,296.545 23.4711,290.545 23.5,284.5C 25.3304,225.842 26.1637,166.842 26,107.5C 26.7172,108.044 27.2172,108.711 27.5,109.5 Z"/></g>
<g><path style="opacity:0.523" fill="#f9f5f7" d="M 154.5,260.5 C 155.239,260.369 155.906,260.536 156.5,261C 155.402,261.77 155.402,262.603 156.5,263.5C 127.833,263.5 99.1667,263.5 70.5,263.5C 98.2204,261.823 126.22,260.823 154.5,260.5 Z"/></g>
<g><path style="opacity:0.52" fill="#f6f3f5" d="M 176.5,261.5 C 178.137,263.316 179.637,265.316 181,267.5C 181.333,267.167 181.667,266.833 182,266.5C 183.651,270.921 186.484,274.421 190.5,277C 190.167,277.333 189.833,277.667 189.5,278C 191.726,279.227 193.226,281.061 194,283.5C 194.333,283.167 194.667,282.833 195,282.5C 195.333,283.5 195.667,284.5 196,285.5C 201.1,290.369 205.267,295.369 208.5,300.5C 224.823,301.666 241.156,301.833 257.5,301C 256.619,300.292 255.953,299.458 255.5,298.5C 256.492,298.672 257.158,298.338 257.5,297.5C 259.559,298.986 260.225,300.82 259.5,303C 242.167,303.667 224.833,303.667 207.5,303C 196.468,290.413 185.801,277.579 175.5,264.5C 176.404,263.791 176.737,262.791 176.5,261.5 Z"/></g>
</svg>
